<svg xmlns="http://www.w3.org/2000/svg" width="16" height="16" fill="#4c474d" class="bi bi-person-circle" viewBox="-3 -3 22 22"><g id="deeditor_bgCarrier" stroke-width="0">
  <rect id="dee_c_e" x="-3" y="-3" width="22" height="22" rx="38.4" fill="#fffde8" strokewidth="0"/>
</g>
  <path d="M11 6a3 3 0 1 1-6 0 3 3 0 0 1 6 0" fill="#4c474d"/>
  <path fill-rule="evenodd" d="M0 8a8 8 0 1 1 16 0A8 8 0 0 1 0 8m8-7a7 7 0 0 0-5.468 11.37C3.242 11.226 4.805 10 8 10s4.757 1.225 5.468 2.37A7 7 0 0 0 8 1" fill="#4c474d"/>
</svg>